<svg width="70" height="70" viewBox="0 0 70 70" fill="none" xmlns="http://www.w3.org/2000/svg">
<path d="M36.525 10.0475C11.36 8.71125 0.925002 41.625 22.4463 54.9237C23.0947 55.3241 23.6298 55.8839 24.0005 56.5498C24.3711 57.2157 24.5651 57.9654 24.5637 58.7275V63.4263C24.5657 65.1691 25.259 66.84 26.4913 68.0724C27.7237 69.3048 29.3946 69.998 31.1375 70H38.8613C40.6045 69.9983 42.276 69.3051 43.5086 68.0724C44.7413 66.8397 45.4346 65.1683 45.4362 63.425V58.7275C45.4364 57.9635 45.632 57.2123 46.0047 56.5454C46.3773 55.8785 46.9145 55.318 47.565 54.9175C67.665 42.5887 60.115 11.6337 36.525 10.0475ZM38.8625 67.5H31.1375C30.2785 67.4971 29.4425 67.2221 28.7495 66.7146C28.0565 66.2071 27.542 65.4931 27.28 64.675H42.72C42.458 65.4931 41.9435 66.2071 41.2505 66.7146C40.5575 67.2221 39.7215 67.4971 38.8625 67.5ZM42.9375 62.175H27.0625V59.3512H42.9375V62.175ZM46.2687 52.78C44.7687 53.7009 43.6728 55.1554 43.2013 56.8512H26.8C26.3324 55.158 25.2396 53.7052 23.7425 52.7863C5.0725 41.275 13.0813 12.6825 34.9875 12.5C56.9175 12.6313 64.885 41.3 46.27 52.7812L46.2687 52.78ZM35 5C35.3315 5 35.6495 4.8683 35.8839 4.63388C36.1183 4.39946 36.25 4.08152 36.25 3.75V1.25C36.25 0.918479 36.1183 0.600537 35.8839 0.366117C35.6495 0.131696 35.3315 0 35 0C34.6685 0 34.3505 0.131696 34.1161 0.366117C33.8817 0.600537 33.75 0.918479 33.75 1.25V3.75C33.75 4.08152 33.8817 4.39946 34.1161 4.63388C34.3505 4.8683 34.6685 5 35 5ZM12.9025 14.1525C13.1479 14.1484 13.3867 14.0727 13.5896 13.9347C13.7925 13.7966 13.9506 13.6023 14.0445 13.3756C14.1384 13.1489 14.164 12.8997 14.1181 12.6586C14.0722 12.4175 13.9569 12.1951 13.7863 12.0187L12.0187 10.2513C11.783 10.0236 11.4672 9.89756 11.1395 9.90041C10.8118 9.90326 10.4982 10.0347 10.2665 10.2665C10.0347 10.4982 9.90326 10.8118 9.90041 11.1395C9.89756 11.4672 10.0236 11.783 10.2513 12.0187L12.0187 13.7863C12.1347 13.9025 12.2724 13.9947 12.4241 14.0575C12.5757 14.1204 12.7383 14.1527 12.9025 14.1525ZM3.75 33.75H1.25C0.918479 33.75 0.600537 33.8817 0.366117 34.1161C0.131696 34.3505 0 34.6685 0 35C0 35.3315 0.131696 35.6495 0.366117 35.8839C0.600537 36.1183 0.918479 36.25 1.25 36.25H3.75C4.08152 36.25 4.39946 36.1183 4.63388 35.8839C4.8683 35.6495 5 35.3315 5 35C5 34.6685 4.8683 34.3505 4.63388 34.1161C4.39946 33.8817 4.08152 33.75 3.75 33.75ZM68.75 33.75H66.25C65.9185 33.75 65.6005 33.8817 65.3661 34.1161C65.1317 34.3505 65 34.6685 65 35C65 35.3315 65.1317 35.6495 65.3661 35.8839C65.6005 36.1183 65.9185 36.25 66.25 36.25H68.75C69.0815 36.25 69.3995 36.1183 69.6339 35.8839C69.8683 35.6495 70 35.3315 70 35C70 34.6685 69.8683 34.3505 69.6339 34.1161C69.3995 33.8817 69.0815 33.75 68.75 33.75ZM57.9812 10.2513L56.2138 12.0187C56.0431 12.1951 55.9278 12.4175 55.8819 12.6586C55.836 12.8997 55.8616 13.1489 55.9555 13.3756C56.0494 13.6023 56.2075 13.7966 56.4104 13.9347C56.6133 14.0727 56.8521 14.1484 57.0975 14.1525C57.8563 14.2687 59.075 12.5837 59.7475 12.0187C59.9697 11.7821 60.0912 11.4683 60.0861 11.1437C60.0811 10.819 59.95 10.5091 59.7205 10.2795C59.491 10.0499 59.1812 9.9185 58.8566 9.91323C58.532 9.90796 58.2181 10.0292 57.9812 10.2513Z" fill="black"/>
<path d="M48.5535 28.8121C48.8895 27.9588 48.9992 27.0333 48.872 26.1251C48.7448 25.217 48.385 24.3572 47.8276 23.629C47.2702 22.9009 46.534 22.3293 45.6905 21.9695C44.847 21.6098 43.9249 21.4742 43.0135 21.5758C42.7987 20.7585 42.3671 20.0143 41.7644 19.4219C41.1616 18.8296 40.4101 18.4109 39.5892 18.2103C38.7682 18.0097 37.9083 18.0345 37.1003 18.2821C36.2923 18.5297 35.5661 18.9909 34.9985 19.6171C34.4254 19.0024 33.6989 18.5515 32.8936 18.3108C32.0883 18.0702 31.2335 18.0485 30.4171 18.2481C29.6007 18.4476 28.8522 18.8611 28.2487 19.446C27.6452 20.0309 27.2085 20.7661 26.9835 21.5758C26.0724 21.4737 25.1503 21.609 24.3069 21.9685C23.4635 22.328 22.7274 22.8995 22.1701 23.6275C21.6128 24.3555 21.2533 25.2153 21.1264 26.1233C20.9995 27.0313 21.1096 27.9567 21.446 28.8096C20.6295 29.3491 19.9595 30.0826 19.4958 30.9444C19.0321 31.8063 18.7893 32.7696 18.7891 33.7483C18.7888 34.7269 19.0311 35.6904 19.4944 36.5525C19.9576 37.4146 20.6273 38.1484 21.4435 38.6883C21.1075 39.5415 20.9977 40.4671 21.1249 41.3752C21.252 42.2833 21.6118 43.1431 22.1693 43.8711C22.7268 44.5992 23.463 45.1707 24.3065 45.5303C25.1501 45.8899 26.0722 46.0253 26.9835 45.9233C27.2085 46.7331 27.6452 47.4683 28.2487 48.0532C28.8522 48.6381 29.6007 49.0516 30.4171 49.2511C31.2335 49.4506 32.0883 49.429 32.8936 49.1883C33.6989 48.9477 34.4254 48.4968 34.9985 47.8821C35.5716 48.4968 36.2982 48.9477 37.1034 49.1883C37.9087 49.429 38.7635 49.4506 39.5799 49.2511C40.3963 49.0516 41.1448 48.6381 41.7483 48.0532C42.3518 47.4683 42.7885 46.7331 43.0135 45.9233C43.9267 46.0333 44.8527 45.9034 45.7003 45.5462C46.5479 45.1891 47.2877 44.6172 47.8468 43.8868C48.4058 43.1565 48.7648 42.2931 48.8883 41.3816C49.0118 40.4702 48.8956 39.5424 48.551 38.6896C49.3675 38.1501 50.0376 37.4166 50.5012 36.5547C50.9649 35.6929 51.2077 34.7295 51.208 33.7509C51.2082 32.7722 50.9659 31.8088 50.5027 30.9467C50.0394 30.0846 49.3698 29.352 48.5535 28.8121ZM33.7485 37.4371C33.2173 37.2703 32.6544 37.2308 32.1051 37.3216C31.5558 37.4125 31.0356 37.6313 30.5864 37.9602C30.1373 38.2892 29.7717 38.7192 29.5194 39.2154C29.267 39.7117 29.1348 40.2603 29.1335 40.8171C29.1335 41.1486 29.2652 41.4665 29.4996 41.701C29.7341 41.9354 30.052 42.0671 30.3835 42.0671C30.715 42.0671 31.033 41.9354 31.2674 41.701C31.5018 41.4665 31.6335 41.1486 31.6335 40.8171C31.6335 40.5366 31.7449 40.2676 31.9433 40.0693C32.1416 39.871 32.4106 39.7596 32.691 39.7596C32.9715 39.7596 33.2405 39.871 33.4388 40.0693C33.6371 40.2676 33.7485 40.5366 33.7485 40.8171V44.7108C33.7435 45.0082 33.6786 45.3014 33.5576 45.5731C33.4366 45.8447 33.262 46.0892 33.0443 46.2917C32.8266 46.4943 32.5702 46.6509 32.2906 46.752C32.011 46.8532 31.7138 46.8969 31.4169 46.8804C31.1199 46.864 30.8294 46.7879 30.5626 46.6565C30.2958 46.5251 30.0583 46.3413 29.8642 46.116C29.6702 45.8906 29.5236 45.6284 29.4333 45.3451C29.3429 45.0618 29.3107 44.7632 29.3385 44.4671C29.36 44.2911 29.3441 44.1125 29.2917 43.9431C29.2393 43.7737 29.1517 43.6173 29.0346 43.4841C28.9175 43.351 28.7736 43.2441 28.6122 43.1705C28.4509 43.0969 28.2758 43.0582 28.0985 43.0571C27.4973 43.0996 26.9798 43.5221 26.3448 43.4608C25.6058 43.4598 24.8973 43.1658 24.3748 42.6433C23.8523 42.1208 23.5583 41.4123 23.5573 40.6733C23.3998 39.5171 24.6823 38.8658 24.3998 37.7921C24.3423 37.5969 24.2379 37.4187 24.0959 37.2729C23.9539 37.1272 23.7784 37.0184 23.5848 36.9558C22.9623 36.7562 22.4115 36.3795 21.9997 35.8718C21.588 35.3641 21.3332 34.7473 21.2664 34.097C21.1997 33.4468 21.324 32.7911 21.6241 32.2104C21.9242 31.6296 22.387 31.1489 22.956 30.8271C23.4846 31.2159 24.1109 31.4501 24.7648 31.5036C25.4188 31.5572 26.0748 31.4278 26.6596 31.1302C27.2444 30.8325 27.7349 30.3781 28.0764 29.8178C28.4179 29.2575 28.5969 28.6133 28.5935 27.9571C28.5935 27.6256 28.4618 27.3076 28.2274 27.0732C27.993 26.8388 27.675 26.7071 27.3435 26.7071C27.012 26.7071 26.6941 26.8388 26.4596 27.0732C26.2252 27.3076 26.0935 27.6256 26.0935 27.9571C26.0903 28.1761 26.0195 28.3889 25.8908 28.5661C25.762 28.7434 25.5816 28.8765 25.3743 28.9473C25.1669 29.018 24.9428 29.023 24.7325 28.9614C24.5223 28.8998 24.3362 28.7748 24.1998 28.6033C23.8687 28.1941 23.6596 27.7 23.5963 27.1775C23.5331 26.655 23.6182 26.1252 23.8421 25.6488C24.0659 25.1724 24.4194 24.7687 24.862 24.4839C25.3046 24.1991 25.8185 24.0447 26.3448 24.0383C27.2073 23.9633 28.0285 24.8333 28.8273 24.2071C29.0369 24.0427 29.1951 23.8218 29.2833 23.5704C29.3714 23.319 29.3858 23.0476 29.3248 22.7883C29.3385 22.2108 29.5776 21.6616 29.9909 21.258C30.4042 20.8544 30.959 20.6284 31.5366 20.6284C32.1143 20.6284 32.6691 20.8544 33.0824 21.258C33.4957 21.6616 33.7348 22.2108 33.7485 22.7883V37.4371ZM47.041 36.6721C46.51 36.2932 45.8853 36.0672 45.2348 36.0187C44.5843 35.9702 43.933 36.101 43.3517 36.397C42.7704 36.6929 42.2814 37.1426 41.9379 37.6971C41.5944 38.2517 41.4096 38.8898 41.4035 39.5421C41.4035 39.8736 41.5352 40.1915 41.7696 40.426C42.0041 40.6604 42.322 40.7921 42.6535 40.7921C42.985 40.7921 43.303 40.6604 43.5374 40.426C43.7718 40.1915 43.9035 39.8736 43.9035 39.5421C43.9068 39.3192 43.9801 39.1029 44.113 38.9239C44.246 38.745 44.4319 38.6124 44.6444 38.5449C44.8569 38.4774 45.0852 38.4785 45.2971 38.548C45.5089 38.6175 45.6935 38.7519 45.8248 38.9321C46.1475 39.3432 46.3487 39.8365 46.4056 40.3561C46.4626 40.8756 46.3729 41.4008 46.1468 41.8721C45.9208 42.3433 45.5673 42.7419 45.1264 43.0227C44.6856 43.3035 44.1749 43.4552 43.6523 43.4608C43.2347 43.4626 42.8224 43.368 42.4473 43.1846C42.2232 43.0849 41.9754 43.0509 41.7328 43.0866C41.4902 43.1222 41.2627 43.226 41.0767 43.3859C40.8908 43.5458 40.754 43.7552 40.6824 43.9898C40.6108 44.2243 40.6073 44.4744 40.6723 44.7108C40.6585 45.2884 40.4195 45.8376 40.0062 46.2412C39.5929 46.6448 39.0381 46.8707 38.4604 46.8707C37.8827 46.8707 37.3279 46.6448 36.9146 46.2412C36.5013 45.8376 36.2622 45.2884 36.2485 44.7108V30.0608C36.7796 30.2276 37.3424 30.2671 37.8916 30.1763C38.4408 30.0855 38.961 29.8669 39.4101 29.538C39.8592 29.2092 40.2248 28.7794 40.4773 28.2833C40.7297 27.7872 40.862 27.2387 40.8635 26.6821C40.8635 26.3506 40.7318 26.0326 40.4974 25.7982C40.263 25.5638 39.945 25.4321 39.6135 25.4321C39.282 25.4321 38.9641 25.5638 38.7296 25.7982C38.4952 26.0326 38.3635 26.3506 38.3635 26.6821C38.3635 26.9625 38.2521 27.2315 38.0538 27.4298C37.8555 27.6282 37.5865 27.7396 37.306 27.7396C37.0256 27.7396 36.7566 27.6282 36.5583 27.4298C36.3599 27.2315 36.2485 26.9625 36.2485 26.6821V22.7883C36.2622 22.2108 36.5013 21.6616 36.9146 21.258C37.3279 20.8544 37.8827 20.6284 38.4604 20.6284C39.0381 20.6284 39.5929 20.8544 40.0062 21.258C40.4195 21.6616 40.6585 22.2108 40.6723 22.7883C40.6073 23.0248 40.6108 23.2749 40.6824 23.5094C40.754 23.744 40.8908 23.9534 41.0767 24.1132C41.2627 24.2731 41.4902 24.3769 41.7328 24.4126C41.9754 24.4482 42.2232 24.4142 42.4473 24.3146C42.8725 24.1145 43.3412 24.0246 43.8103 24.0532C44.2794 24.0818 44.7337 24.228 45.1315 24.4782C45.5293 24.7285 45.8577 25.0748 46.0866 25.4852C46.3154 25.8957 46.4373 26.3571 46.441 26.8271C46.4424 27.459 46.2261 28.0721 45.8285 28.5633C45.7019 28.7216 45.6154 28.9081 45.5764 29.1069C45.5373 29.3058 45.5468 29.5111 45.6041 29.7055C45.6615 29.8999 45.7648 30.0776 45.9055 30.2235C46.0462 30.3693 46.2201 30.4791 46.4123 30.5433C47.0277 30.7508 47.5704 31.131 47.9758 31.6385C48.3811 32.146 48.6318 32.7594 48.6981 33.4055C48.7644 34.0515 48.6434 34.7031 48.3496 35.2823C48.0557 35.8615 47.6015 36.3439 47.041 36.6721Z" fill="black"/>
</svg>
