<svg width="76" height="73" viewBox="0 0 76 73" fill="none" xmlns="http://www.w3.org/2000/svg">
<path d="M71.2642 59.253V43.8939C71.2643 43.7173 71.2297 43.5425 71.1623 43.3793C71.0948 43.2161 70.9958 43.0678 70.8711 42.9429C70.7463 42.818 70.5981 42.7189 70.4349 42.6512C70.2718 42.5836 70.097 42.5488 69.9204 42.5488H53.786C53.4296 42.5488 53.0878 42.6904 52.8358 42.9424C52.5838 43.1944 52.4422 43.5362 52.4422 43.8926V58.6832H47.0632V43.8939C47.0634 43.7173 47.0288 43.5425 46.9613 43.3793C46.8939 43.2161 46.7949 43.0678 46.6701 42.9429C46.5453 42.818 46.3971 42.7189 46.234 42.6512C46.0709 42.5836 45.896 42.5488 45.7195 42.5488H29.5837C29.4071 42.5487 29.2323 42.5833 29.0691 42.6507C28.9059 42.7182 28.7576 42.8171 28.6327 42.9419C28.5077 43.0667 28.4086 43.2149 28.341 43.378C28.2734 43.5412 28.2386 43.716 28.2386 43.8926V58.6832H22.8623V43.8939C22.8625 43.7173 22.8278 43.5425 22.7604 43.3793C22.6929 43.2161 22.594 43.0678 22.4692 42.9429C22.3444 42.818 22.1962 42.7189 22.0331 42.6512C21.8699 42.5836 21.6951 42.5488 21.5185 42.5488H5.38143C5.02505 42.5488 4.68326 42.6904 4.43126 42.9424C4.17926 43.1944 4.03768 43.5362 4.03768 43.8926V59.2516C2.62131 59.8678 1.46055 60.9533 0.750917 62.3252C0.0412827 63.6972 -0.173872 65.2717 0.141692 66.7838C0.457256 68.2958 1.28426 69.6529 2.4834 70.6264C3.68255 71.6 5.18058 72.1306 6.72518 72.1288H68.5767C70.1122 72.1143 71.5967 71.5753 72.7839 70.6012C73.971 69.6271 74.7894 68.2763 75.1033 66.7731C75.4172 65.2699 75.2078 63.7045 74.5097 62.3367C73.8117 60.9688 72.6656 59.8808 71.2642 59.253ZM55.1297 45.2377H68.5767V58.6832H55.1297V45.2377ZM30.9288 45.2377H44.3757V58.6832H30.9288V45.2377ZM6.72787 45.2377H20.1734V58.6832H6.72787V45.2377ZM68.5753 69.4386H6.72787C5.67093 69.4193 4.6638 68.9859 3.92316 68.2316C3.18251 67.4773 2.76755 66.4625 2.76755 65.4053C2.76755 64.3482 3.18251 63.3334 3.92316 62.5791C4.6638 61.8248 5.67093 61.3914 6.72787 61.3721H68.5753C69.6322 61.3914 70.6394 61.8248 71.38 62.5791C72.1207 63.3334 72.5356 64.3482 72.5356 65.4053C72.5356 66.4625 72.1207 67.4773 71.38 68.2316C70.6394 68.9859 69.6322 69.4193 68.5753 69.4386Z" fill="black"/>
<path d="M11.7468 64.0606C11.3902 64.0606 11.0482 64.2022 10.7961 64.4544C10.544 64.7065 10.4023 65.0485 10.4023 65.405C10.4023 65.7616 10.544 66.1035 10.7961 66.3557C11.0482 66.6078 11.3902 66.7494 11.7468 66.7494C12.1031 66.7494 12.4449 66.6079 12.6969 66.3559C12.9489 66.1039 13.0905 65.7621 13.0905 65.4057C13.0905 65.0493 12.9489 64.7075 12.6969 64.4555C12.4449 64.2035 12.1031 64.0606 11.7468 64.0606ZM22.1205 64.0606C21.764 64.0606 21.422 64.2022 21.1699 64.4544C20.9177 64.7065 20.7761 65.0485 20.7761 65.405C20.7761 65.7616 20.9177 66.1035 21.1699 66.3557C21.422 66.6078 21.764 66.7494 22.1205 66.7494C22.4769 66.7494 22.8187 66.6079 23.0707 66.3559C23.3227 66.1039 23.4643 65.7621 23.4643 65.4057C23.4643 65.0493 23.3227 64.7075 23.0707 64.4555C22.8187 64.2035 22.4769 64.0606 22.1205 64.0606ZM32.4916 64.0606C32.135 64.0606 31.7931 64.2022 31.5409 64.4544C31.2888 64.7065 31.1472 65.0485 31.1472 65.405C31.1472 65.7616 31.2888 66.1035 31.5409 66.3557C31.7931 66.6078 32.135 66.7494 32.4916 66.7494C32.848 66.7494 33.1898 66.6079 33.4418 66.3559C33.6938 66.1039 33.8353 65.7621 33.8353 65.4057C33.8353 65.0493 33.6938 64.7075 33.4418 64.4555C33.1898 64.2035 32.848 64.0606 32.4916 64.0606ZM42.864 64.0606C42.5074 64.0606 42.1655 64.2022 41.9133 64.4544C41.6612 64.7065 41.5196 65.0485 41.5196 65.405C41.5196 65.7616 41.6612 66.1035 41.9133 66.3557C42.1655 66.6078 42.5074 66.7494 42.864 66.7494C43.2204 66.7494 43.5622 66.6079 43.8142 66.3559C44.0662 66.1039 44.2077 65.7621 44.2077 65.4057C44.2077 65.0493 44.0662 64.7075 43.8142 64.4555C43.5622 64.2035 43.2204 64.0606 42.864 64.0606ZM53.235 64.0606C52.8785 64.0606 52.5365 64.2022 52.2844 64.4544C52.0323 64.7065 51.8906 65.0485 51.8906 65.405C51.8906 65.7616 52.0323 66.1035 52.2844 66.3557C52.5365 66.6078 52.8785 66.7494 53.235 66.7494C53.5914 66.7494 53.9332 66.6079 54.1852 66.3559C54.4372 66.1039 54.5788 65.7621 54.5788 65.4057C54.5788 65.0493 54.4372 64.7075 54.1852 64.4555C53.9332 64.2035 53.5914 64.0606 53.235 64.0606ZM63.6088 64.0606C63.2522 64.0606 62.9103 64.2022 62.6581 64.4544C62.406 64.7065 62.2644 65.0485 62.2644 65.405C62.2644 65.7616 62.406 66.1035 62.6581 66.3557C62.9103 66.6078 63.2522 66.7494 63.6088 66.7494C63.9652 66.7494 64.307 66.6079 64.559 66.3559C64.811 66.1039 64.9525 65.7621 64.9525 65.4057C64.9525 65.0493 64.811 64.7075 64.559 64.4555C64.307 64.2035 63.9652 64.0606 63.6088 64.0606ZM19.5002 23.6782C21.0549 23.56 22.6446 23.8354 23.2896 25.4412C23.9789 27.0242 23.0316 28.3652 21.8571 29.369C21.7322 29.4938 21.6331 29.642 21.5655 29.8051C21.4978 29.9683 21.463 30.1431 21.463 30.3197C21.463 30.4963 21.4978 30.6712 21.5655 30.8343C21.6331 30.9974 21.7322 31.1456 21.8571 31.2704L25.875 35.2882C25.9998 35.4132 26.148 35.5123 26.3111 35.5799C26.4742 35.6475 26.6491 35.6823 26.8257 35.6823C27.0022 35.6823 27.1771 35.6475 27.3402 35.5799C27.5034 35.5123 27.6516 35.4132 27.7764 35.2882C28.7949 34.103 30.1091 33.1758 31.7068 33.8571C33.3099 34.4887 33.5867 36.1079 33.4671 37.6465C33.4671 38.0029 33.6087 38.3447 33.8607 38.5967C34.1127 38.8487 34.4545 38.9902 34.8109 38.9902H40.4909C40.6675 38.9904 40.8424 38.9558 41.0056 38.8883C41.1688 38.8209 41.317 38.7219 41.442 38.5971C41.5669 38.4724 41.666 38.3242 41.7336 38.161C41.8012 37.9979 41.836 37.8231 41.836 37.6465C41.7178 36.0904 41.9919 34.5008 43.5977 33.8558C45.1793 33.1664 46.523 34.1151 47.5268 35.2882C47.6516 35.4132 47.7998 35.5123 47.9629 35.5799C48.1261 35.6475 48.3009 35.6823 48.4775 35.6823C48.6541 35.6823 48.8289 35.6475 48.9921 35.5799C49.1552 35.5123 49.3034 35.4132 49.4282 35.2882L53.446 31.2704C53.571 31.1456 53.6701 30.9974 53.7377 30.8343C53.8053 30.6712 53.8401 30.4963 53.8401 30.3197C53.8401 30.1431 53.8053 29.9683 53.7377 29.8051C53.6701 29.642 53.571 29.4938 53.446 29.369C52.2622 28.3518 51.331 27.0349 52.0136 25.4412C52.6465 23.8368 54.2644 23.56 55.803 23.6782C56.1593 23.6782 56.5011 23.5366 56.7531 23.2846C57.0051 23.0326 57.1467 22.6909 57.1467 22.3345V16.6558C57.1467 16.2994 57.0051 15.9576 56.7531 15.7056C56.5011 15.4536 56.1593 15.312 55.803 15.312H54.6514C54.0898 15.304 53.543 15.1317 53.0783 14.8164C52.6136 14.501 52.2515 14.0565 52.0367 13.5376C51.8219 13.0188 51.7637 12.4483 51.8695 11.8968C51.9752 11.3453 52.2402 10.8368 52.6317 10.4342L53.446 9.62125C53.6965 9.36794 53.8369 9.02609 53.8369 8.66988C53.8369 8.31366 53.6965 7.97181 53.446 7.7185L49.4282 3.70069C49.176 3.44869 48.834 3.30714 48.4775 3.30714C48.121 3.30714 47.779 3.44869 47.5268 3.70069L46.7125 4.515C46.3097 4.90613 45.8013 5.17075 45.2498 5.2762C44.6984 5.38164 44.1282 5.32329 43.6096 5.10834C43.0909 4.8934 42.6466 4.53128 42.3314 4.06668C42.0162 3.60208 41.844 3.05536 41.836 2.494V1.34375C41.836 0.987365 41.6944 0.645577 41.4424 0.393575C41.1904 0.141573 40.8487 0 40.4923 0H34.8109C34.4545 0 34.1127 0.141573 33.8607 0.393575C33.6087 0.645577 33.4671 0.987365 33.4671 1.34375V2.49534C33.4595 3.05702 33.2873 3.60413 32.972 4.06899C32.6567 4.53386 32.212 4.89608 31.6929 5.11085C31.1738 5.32562 30.6032 5.38351 30.0516 5.27737C29.5 5.17123 28.9916 4.90571 28.5893 4.51366L27.7764 3.70069C27.5241 3.44869 27.1822 3.30714 26.8257 3.30714C26.4691 3.30714 26.1272 3.44869 25.875 3.70069L21.8571 7.7185C21.6067 7.97181 21.4662 8.31366 21.4662 8.66988C21.4662 9.02609 21.6067 9.36794 21.8571 9.62125L22.6715 10.4342C23.0623 10.8371 23.3268 11.3455 23.4322 11.8968C23.5376 12.4481 23.4793 13.0182 23.2646 13.5368C23.0498 14.0554 22.688 14.4999 22.2238 14.8153C21.7595 15.1307 21.213 15.3034 20.6518 15.312H19.5002C19.1438 15.312 18.802 15.4536 18.55 15.7056C18.298 15.9576 18.1565 16.2994 18.1565 16.6558V22.3345C18.1565 22.6909 18.298 23.0326 18.55 23.2846C18.802 23.5366 19.1438 23.6782 19.5002 23.6782ZM20.844 17.9968C21.9018 17.9481 22.9239 17.5991 23.7906 16.9907C24.6573 16.3823 25.3328 15.5396 25.7381 14.5613C26.1434 13.583 26.2617 12.5095 26.0791 11.4664C25.8966 10.4233 25.4207 9.45374 24.7072 8.67122L26.829 6.55078C27.6124 7.26121 28.5815 7.73442 29.6235 7.91529C30.6654 8.09617 31.7373 7.97726 32.7143 7.57241C33.6913 7.16757 34.5331 6.49346 35.1417 5.62862C35.7503 4.76377 36.1007 3.74379 36.152 2.6875H39.1512C39.1878 3.75079 39.5296 4.78108 40.1358 5.65543C40.742 6.52978 41.5869 7.21126 42.5698 7.61855C43.5526 8.02584 44.6319 8.14173 45.6789 7.9524C46.7258 7.76307 47.6962 7.27651 48.4741 6.55078L50.5946 8.67122C49.8686 9.44931 49.3818 10.4199 49.1923 11.467C49.0028 12.5142 49.1186 13.5938 49.5259 14.577C49.9332 15.5601 50.6148 16.4053 51.4893 17.0117C52.3638 17.6181 53.3943 17.9601 54.4579 17.9968V20.9934C53.4001 21.0421 52.3782 21.391 51.5115 21.9993C50.6449 22.6077 49.9695 23.4503 49.5643 24.4285C49.1592 25.4068 49.041 26.4802 49.2237 27.5231C49.4064 28.5661 49.8824 29.5354 50.5959 30.3177L48.4741 32.4381C47.6908 31.7277 46.7217 31.2545 45.6797 31.0736C44.6378 30.8927 43.5659 31.0116 42.5889 31.4165C41.6119 31.8213 40.7701 32.4954 40.1615 33.3603C39.5528 34.2251 39.2025 35.2451 39.1512 36.3014H36.152C36.1041 35.2433 35.7556 34.2208 35.1475 33.3536C34.5393 32.4865 33.6966 31.8106 32.7181 31.4052C31.7396 30.9997 30.6658 30.8816 29.6226 31.0645C28.5793 31.2475 27.6098 31.7239 26.8277 32.4381L24.7059 30.3177C25.4198 29.5355 25.8961 28.5662 26.0791 27.5231C26.2621 26.4801 26.1441 25.4065 25.7391 24.4281C25.334 23.4496 24.6586 22.6068 23.7919 21.9983C22.9253 21.3898 21.9032 21.0407 20.8453 20.9921L20.844 17.9968Z" fill="black"/>
<path d="M37.6512 30.2503C40.5027 30.2468 43.2363 29.1125 45.2525 27.0962C47.2688 25.08 48.4031 22.3463 48.4066 19.4949C47.8664 5.24447 27.4334 5.2485 26.8945 19.4949C26.8981 22.3466 28.0326 25.0804 30.0491 27.0967C32.0657 29.113 34.7996 30.2471 37.6512 30.2503ZM37.6512 11.4271C48.3126 11.7657 48.3099 27.2242 37.6512 27.5615C26.9899 27.2228 26.9926 11.7643 37.6512 11.4271Z" fill="black"/>
</svg>
