<svg width="70" height="70" viewBox="0 0 70 70" fill="none" xmlns="http://www.w3.org/2000/svg">
<path d="M68.2421 30.5375C67.7387 29.985 67.3967 29.3048 67.2534 28.5713C67.1102 27.8377 67.1711 27.0788 67.4296 26.3775C67.9831 24.828 67.9405 23.1281 67.31 21.6083C66.6795 20.0885 65.5062 18.8576 64.0183 18.155C63.3386 17.8415 62.7585 17.3466 62.3419 16.7246C61.9253 16.1027 61.6883 15.3779 61.6571 14.63C61.5935 12.9814 60.9092 11.4177 59.7414 10.2524C58.5735 9.08708 57.0083 8.40621 55.3596 8.34626C54.6124 8.31147 53.889 8.07295 53.2677 7.65652C52.6463 7.24009 52.1508 6.66163 51.8346 5.98376C51.1347 4.49389 49.9042 3.31864 48.3838 2.68778C46.8635 2.05693 45.1624 2.01582 43.6133 2.57251C42.9079 2.83145 42.1445 2.89027 41.4077 2.74246C40.6709 2.59466 39.9893 2.246 39.4383 1.73501C38.2263 0.615201 36.6355 -0.0046114 34.9853 2.58338e-05C33.3351 0.00466307 31.7478 0.633407 30.5421 1.76001C29.9894 2.26362 29.3091 2.60574 28.5752 2.74902C27.8414 2.8923 27.0823 2.83124 26.3808 2.57251C24.8314 2.01943 23.1316 2.06243 21.6121 2.69315C20.0925 3.32388 18.8619 4.49724 18.1596 5.98501C17.8461 6.66477 17.3511 7.24487 16.7292 7.66147C16.1073 8.07807 15.3825 8.31503 14.6346 8.34626C12.9858 8.4095 11.4218 9.09366 10.2562 10.2616C9.0906 11.4295 8.40956 12.9948 8.34959 14.6438C8.31457 15.3907 8.07594 16.1139 7.65953 16.735C7.24312 17.3561 6.66477 17.8514 5.98709 18.1675C4.49793 18.8685 3.32347 20.0994 2.69296 21.6197C2.06244 23.1401 2.02113 24.8408 2.57709 26.39C2.83577 27.0953 2.89446 27.8584 2.74667 28.5949C2.59887 29.3315 2.25034 30.0129 1.73959 30.5638C0.617037 31.7744 -0.00461386 33.3658 2.57847e-05 35.0168C0.00466543 36.6678 0.63525 38.2557 1.76459 39.46C2.26819 40.0127 2.61031 40.693 2.75359 41.4268C2.89688 42.1607 2.83582 42.9198 2.57709 43.6213C2.02356 45.1707 2.06619 46.8707 2.6967 48.3905C3.32721 49.9103 4.5005 51.1412 5.98834 51.8438C6.66814 52.157 7.24838 52.6516 7.6652 53.2733C8.08202 53.895 8.31926 54.6197 8.35083 55.3675C8.41408 57.0163 9.09824 58.5803 10.2661 59.7459C11.4341 60.9115 12.9994 61.5925 14.6483 61.6525C15.3953 61.6875 16.1184 61.9261 16.7395 62.3426C17.3606 62.759 17.856 63.3373 18.1721 64.015C18.8729 65.5041 20.1034 66.6786 21.6235 67.3094C23.1436 67.9401 24.8442 67.9818 26.3933 67.4263C27.0988 67.1673 27.8621 67.1085 28.5989 67.2563C29.3357 67.4041 30.0173 67.7528 30.5683 68.2638C31.78 69.3844 33.371 70.0048 35.0214 70.0001C36.6718 69.9955 38.2593 69.3662 39.4646 68.2388C40.0172 67.7352 40.6976 67.393 41.4314 67.2497C42.1653 67.1065 42.9243 67.1675 43.6258 67.4263C45.1755 67.9797 46.8756 67.9369 48.3954 67.3061C49.9152 66.6754 51.146 65.5018 51.8483 64.0138C52.1617 63.3342 52.6565 62.7542 53.2782 62.3376C53.8998 61.921 54.6244 61.684 55.3721 61.6525C57.0209 61.5893 58.5849 60.9051 59.7505 59.7372C60.9161 58.5693 61.5971 57.004 61.6571 55.355C61.6919 54.6078 61.9304 53.8844 62.3468 53.2631C62.7633 52.6418 63.3417 52.1462 64.0196 51.83C65.5085 51.129 66.6827 49.8984 67.3132 48.3783C67.9437 46.8582 67.9852 45.1578 67.4296 43.6088C67.1715 42.9092 67.1108 42.1522 67.2541 41.4205C67.3974 40.6887 67.7392 40.0105 68.2421 39.46C69.3711 38.249 69.9989 36.655 69.9989 34.9994C69.9989 33.3438 69.3711 31.7485 68.2421 30.5375ZM66.4046 37.7738C65.5887 38.6601 65.0334 39.7544 64.7999 40.9362C64.5663 42.1179 64.6635 43.3412 65.0808 44.4713C65.4277 45.4313 65.4033 46.4864 65.0125 47.4294C64.6217 48.3724 63.8926 49.1354 62.9683 49.5688C61.8689 50.074 60.9308 50.874 60.2583 51.8799C59.5858 52.8858 59.205 54.0584 59.1583 55.2675C59.1183 56.2911 58.6928 57.2617 57.9672 57.9847C57.2416 58.7078 56.2695 59.1298 55.2458 59.1663C54.042 59.2148 52.875 59.5952 51.8739 60.2657C50.8728 60.9361 50.0766 61.8703 49.5733 62.965C49.14 63.8893 48.377 64.6183 47.434 65.0091C46.4909 65.3999 45.4359 65.4243 44.4758 65.0775C43.3406 64.6603 42.1123 64.5643 40.926 64.8C39.7398 65.0358 38.6415 65.5942 37.7521 66.4138C36.9993 67.1078 36.0123 67.492 34.9884 67.4897C33.9645 67.4874 32.9792 67.0987 32.2296 66.4013C31.3414 65.5885 30.2472 65.0352 29.0663 64.8015C27.8853 64.5679 26.6628 64.6629 25.5321 65.0763C24.5718 65.4234 23.5165 65.3992 22.5732 65.0084C21.6299 64.6176 20.8667 63.8883 20.4333 62.9638C19.9282 61.8645 19.1284 60.9266 18.1227 60.2541C17.117 59.5815 15.9447 59.2007 14.7358 59.1538C13.7123 59.1141 12.7415 58.6889 12.0182 57.9635C11.295 57.2382 10.8726 56.2662 10.8358 55.2425C10.7877 54.0386 10.4075 52.8714 9.73729 51.87C9.06709 50.8687 8.13301 50.0723 7.03833 49.5688C6.11406 49.1354 5.38502 48.3724 4.99421 47.4294C4.6034 46.4864 4.57901 45.4313 4.92584 44.4713C5.34266 43.3361 5.43834 42.108 5.20237 40.9219C4.9664 39.7359 4.40792 38.6379 3.58834 37.7488C2.89396 36.9959 2.50947 36.0086 2.51179 34.9844C2.51411 33.9603 2.90306 32.9747 3.60084 32.225C4.41689 31.3388 4.97243 30.2446 5.20623 29.0628C5.44002 27.881 5.34299 26.6577 4.92584 25.5275C4.57865 24.5673 4.60285 23.5119 4.99368 22.5686C5.38452 21.6253 6.11377 20.8621 7.03833 20.4288C8.13786 19.9238 9.07603 19.1241 9.74877 18.1184C10.4215 17.1127 10.8025 15.9403 10.8496 14.7313C10.8893 13.7077 11.3145 12.7369 12.0398 12.0137C12.7652 11.2904 13.7371 10.868 14.7608 10.8313C15.9646 10.7829 17.1315 10.4026 18.1326 9.73239C19.1337 9.06221 19.9299 8.12825 20.4333 7.03376C20.8667 6.10919 21.6299 5.37994 22.5732 4.98911C23.5165 4.59828 24.5718 4.57408 25.5321 4.92126C26.6673 5.33765 27.8953 5.43312 29.0813 5.19716C30.2672 4.96121 31.3652 4.40297 32.2546 3.58376C33.0074 2.88974 33.9944 2.50547 35.0183 2.50779C36.0422 2.51011 37.0274 2.89884 37.7771 3.59626C38.6634 4.41255 39.7579 4.96823 40.9399 5.20203C42.1219 5.43583 43.3455 5.33867 44.4758 4.92126C45.4359 4.57443 46.4909 4.59882 47.434 4.98963C48.377 5.38044 49.14 6.10948 49.5733 7.03376C50.0784 8.13347 50.8783 9.07176 51.8843 9.74451C52.8902 10.4173 54.0628 10.7982 55.2721 10.845C56.2954 10.885 57.2659 11.3103 57.9889 12.0357C58.7119 12.761 59.1341 13.7328 59.1708 14.7563C59.2192 15.9602 59.5996 17.1272 60.2701 18.1284C60.9405 19.1295 61.8748 19.9256 62.9696 20.4288C63.8941 20.8621 64.6234 21.6253 65.0142 22.5686C65.4051 23.5119 65.4293 24.5673 65.0821 25.5275C64.6651 26.6626 64.5692 27.8906 64.805 29.0767C65.0407 30.2627 65.599 31.3607 66.4183 32.25C67.1157 33.0014 67.5022 33.9892 67.4999 35.0143C67.4976 36.0395 67.1054 37.0256 66.4046 37.7738Z" fill="white"/>
<path d="M35.003 8.75781C28.0455 8.76542 21.3751 11.5327 16.4556 16.4525C11.536 21.3724 8.769 28.0428 8.76172 35.0003C10.1992 69.8141 59.8067 69.8016 61.2442 35.0003C61.2366 28.043 58.4695 21.3729 53.5499 16.4534C48.6304 11.5338 41.9602 8.76667 35.003 8.75906V8.75781ZM35.003 58.7416C31.2188 58.738 27.4905 57.8287 24.1296 56.0897C20.7687 54.3506 17.8729 51.8323 15.6842 48.7453H54.3217C52.1331 51.8323 49.2373 54.3506 45.8764 56.0897C42.5155 57.8287 38.7871 58.738 35.003 58.7416ZM55.9092 46.2453H14.0967C12.2348 42.7892 11.2601 38.9248 11.2601 34.9991C11.2601 31.0733 12.2348 27.209 14.0967 23.7528H55.9092C57.7551 27.214 58.7207 31.0764 58.7207 34.9991C58.7207 38.9217 57.7551 42.7841 55.9092 46.2453ZM15.6842 21.2541C17.8702 18.1643 20.7655 15.644 24.1269 13.9045C27.4884 12.165 31.2181 11.2572 35.003 11.2572C38.7878 11.2572 42.5175 12.165 45.879 13.9045C49.2405 15.644 52.1357 18.1643 54.3217 21.2541H15.6842Z" fill="white"/>
<path d="M16.2211 31.8644V41.1494C16.2211 41.4809 16.3528 41.7988 16.5872 42.0332C16.8217 42.2677 17.1396 42.3994 17.4711 42.3994C17.8026 42.3994 18.1206 42.2677 18.355 42.0332C18.5894 41.7988 18.7211 41.4809 18.7211 41.1494V28.8494C18.7213 28.6021 18.6481 28.3603 18.5109 28.1546C18.3736 27.9489 18.1784 27.7885 17.95 27.6938C17.7216 27.599 17.4702 27.5742 17.2276 27.6223C16.9851 27.6705 16.7623 27.7895 16.5874 27.9644L14.1274 30.4244C12.8886 31.9394 15.0661 33.4706 16.2211 31.8644ZM30.6111 37.4581V32.5381C30.6111 31.8894 30.4833 31.247 30.2351 30.6477C29.9868 30.0483 29.6229 29.5037 29.1642 29.045C28.7055 28.5863 28.1609 28.2224 27.5616 27.9741C26.9622 27.7259 26.3198 27.5981 25.6711 27.5981C25.0224 27.5981 24.38 27.7259 23.7807 27.9741C23.1813 28.2224 22.6367 28.5863 22.178 29.045C21.7193 29.5037 21.3554 30.0483 21.1071 30.6477C20.8589 31.247 20.7311 31.8894 20.7311 32.5381V37.4581C20.7311 38.7683 21.2516 40.0248 22.178 40.9512C23.1044 41.8776 24.3609 42.3981 25.6711 42.3981C26.9813 42.3981 28.2378 41.8776 29.1642 40.9512C30.0906 40.0248 30.6111 38.7683 30.6111 37.4581ZM23.2299 32.5381C23.2443 31.9004 23.5078 31.2936 23.9639 30.8477C24.42 30.4018 25.0326 30.1521 25.6705 30.1521C26.3084 30.1521 26.9209 30.4018 27.3771 30.8477C27.8332 31.2936 28.0967 31.9004 28.1111 32.5381V37.4581C28.0967 38.0958 27.8332 38.7026 27.3771 39.1485C26.9209 39.5944 26.3084 39.8441 25.6705 39.8441C25.0326 39.8441 24.42 39.5944 23.9639 39.1485C23.5078 38.7026 23.2443 38.0958 23.2299 37.4581V32.5381ZM42.5011 37.4581V32.5381C42.5115 31.8829 42.3915 31.2321 42.1479 30.6237C41.9044 30.0153 41.5422 29.4614 41.0825 28.9943C40.6228 28.5272 40.0748 28.1563 39.4703 27.9031C38.8659 27.6499 38.2171 27.5195 37.5617 27.5195C36.9064 27.5195 36.2576 27.6499 35.6531 27.9031C35.0487 28.1563 34.5007 28.5272 34.041 28.9943C33.5813 29.4614 33.2191 30.0153 32.9755 30.6237C32.732 31.2321 32.6119 31.8829 32.6224 32.5381V37.4581C32.643 38.7545 33.1725 39.9908 34.0965 40.9003C35.0206 41.8098 36.2652 42.3195 37.5617 42.3195C38.8583 42.3195 40.1029 41.8098 41.027 40.9003C41.951 39.9908 42.4805 38.7545 42.5011 37.4581ZM35.1211 32.5381C35.1355 31.9004 35.399 31.2936 35.8552 30.8477C36.3113 30.4018 36.9238 30.1521 37.5617 30.1521C38.1996 30.1521 38.8122 30.4018 39.2683 30.8477C39.7245 31.2936 39.9879 31.9004 40.0024 32.5381V37.4581C39.9879 38.0958 39.7245 38.7026 39.2683 39.1485C38.8122 39.5944 38.1996 39.8441 37.5617 39.8441C36.9238 39.8441 36.3113 39.5944 35.8552 39.1485C35.399 38.7026 35.1355 38.0958 35.1211 37.4581V32.5381ZM47.1336 40.2556L55.8811 31.5081C56.1032 31.2713 56.2244 30.9574 56.2191 30.6328C56.2139 30.3082 56.0825 29.9984 55.8529 29.7689C55.6232 29.5394 55.3133 29.4083 54.9887 29.4032C54.6641 29.3982 54.3503 29.5196 54.1136 29.7419L45.3661 38.4881C45.1384 38.7239 45.0124 39.0396 45.0153 39.3674C45.0181 39.6951 45.1496 40.0086 45.3813 40.2404C45.6131 40.4721 45.9266 40.6036 46.2544 40.6065C46.5821 40.6093 46.8979 40.4833 47.1336 40.2556ZM54.3724 36.8731C53.8836 36.8857 53.4192 37.0888 53.0779 37.4389C52.7367 37.789 52.5458 38.2586 52.5458 38.7475C52.5458 39.2364 52.7367 39.7059 53.0779 40.0561C53.4192 40.4062 53.8836 40.6092 54.3724 40.6219C54.8696 40.6219 55.3466 40.4243 55.6982 40.0727C56.0498 39.7211 56.2474 39.2441 56.2474 38.7469C56.2474 38.2496 56.0498 37.7727 55.6982 37.421C55.3466 37.0694 54.8696 36.8731 54.3724 36.8731ZM46.8749 33.1244C47.3721 33.1244 47.8491 32.9268 48.2007 32.5752C48.5523 32.2236 48.7499 31.7466 48.7499 31.2494C48.7499 30.7521 48.5523 30.2752 48.2007 29.9235C47.8491 29.5719 47.3721 29.3744 46.8749 29.3744C46.3776 29.3744 45.9007 29.5719 45.549 29.9235C45.1974 30.2752 44.9999 30.7521 44.9999 31.2494C44.9999 31.7466 45.1974 32.2236 45.549 32.5752C45.9007 32.9268 46.3776 33.1244 46.8749 33.1244Z" fill="white"/>
</svg>
