<svg width="195" height="40" viewBox="0 0 195 40" fill="none" xmlns="http://www.w3.org/2000/svg">
<path d="M61.6693 11.5557L55.7892 22.961V28.2724H51.1183V22.961L45.2383 11.5557H50.5493L53.4893 18.0053L56.4294 11.5557H61.6693Z" fill="#EB3037"/>
<path d="M73.6706 25.5456H67.7431L66.8421 28.2724H61.9579L68.0513 11.5557H73.4098L79.4795 28.2724H74.5716L73.6706 25.5456ZM72.5088 21.9888L70.7068 16.5826L68.9286 21.9888H72.5088Z" fill="#EB3037"/>
<path d="M96.4768 28.2724H91.8296L85.6413 18.9301V28.2724H80.9942V11.5557H85.6413L91.8296 21.0167V11.5557H96.4768V28.2724Z" fill="#EB3037"/>
<path d="M111.714 11.5557V15.2548H107.256V28.2724H102.609V15.2548H98.1993V11.5557H111.714Z" fill="#EB3037"/>
<path d="M121.898 28.2724L118.578 22.1074H118.08V28.2724H113.433V11.5557H120.76C122.103 11.5557 123.241 11.7929 124.174 12.2671C125.106 12.7255 125.81 13.3657 126.284 14.1877C126.758 14.9939 126.995 15.9029 126.995 16.9146C126.995 18.0527 126.679 19.0565 126.047 19.9259C125.431 20.7796 124.522 21.3882 123.32 21.7517L127.09 28.2724H121.898ZM118.08 18.9301H120.38C121.013 18.9301 121.487 18.7799 121.803 18.4795C122.119 18.1792 122.277 17.7445 122.277 17.1754C122.277 16.6379 122.111 16.219 121.779 15.9187C121.463 15.6025 120.997 15.4444 120.38 15.4444H118.08V18.9301Z" fill="#EB3037"/>
<path d="M139.683 25.5456H133.756L132.855 28.2724H127.971L134.064 11.5557H139.423L145.492 28.2724H140.584L139.683 25.5456ZM138.522 21.9888L136.72 16.5826L134.941 21.9888H138.522Z" fill="#EB3037"/>
<path d="M162.49 28.2724H157.842L151.654 18.9301V28.2724H147.007V11.5557H151.654L157.842 21.0167V11.5557H162.49V28.2724Z" fill="#EB3037"/>
<path d="M171.444 28.4384C169.499 28.4384 167.903 27.98 166.654 27.0631C165.405 26.1305 164.734 24.8026 164.639 23.0796H169.594C169.642 23.6645 169.815 24.0913 170.116 24.36C170.416 24.6287 170.803 24.7631 171.278 24.7631C171.704 24.7631 172.052 24.6604 172.321 24.4549C172.605 24.2335 172.748 23.9332 172.748 23.5538C172.748 23.0638 172.518 22.6844 172.06 22.4157C171.602 22.1469 170.859 21.8466 169.831 21.5146C168.741 21.151 167.855 20.8033 167.176 20.4713C166.512 20.1235 165.927 19.6256 165.421 18.9775C164.931 18.3136 164.686 17.452 164.686 16.3929C164.686 15.318 164.955 14.4011 165.492 13.6424C166.03 12.8678 166.773 12.2829 167.721 11.8877C168.669 11.4925 169.744 11.2949 170.946 11.2949C172.89 11.2949 174.439 11.7533 175.593 12.6702C176.762 13.5712 177.387 14.8438 177.466 16.4878H172.416C172.4 15.9819 172.242 15.6025 171.941 15.3496C171.657 15.0967 171.285 14.9702 170.827 14.9702C170.479 14.9702 170.195 15.073 169.974 15.2785C169.752 15.484 169.642 15.7764 169.642 16.1558C169.642 16.472 169.76 16.7486 169.997 16.9857C170.25 17.207 170.558 17.4046 170.922 17.5785C171.285 17.7366 171.823 17.9421 172.534 18.195C173.593 18.5586 174.463 18.9221 175.142 19.2857C175.838 19.6335 176.431 20.1314 176.921 20.7796C177.426 21.4119 177.679 22.2181 177.679 23.1981C177.679 24.194 177.426 25.0872 176.921 25.8775C176.431 26.6679 175.711 27.2923 174.763 27.7508C173.83 28.2092 172.724 28.4384 171.444 28.4384Z" fill="#EB3037"/>
<path d="M194.801 11.5557V28.2724H190.153V21.562H184.487V28.2724H179.84V11.5557H184.487V17.8393H190.153V11.5557H194.801Z" fill="#EB3037"/>
<g clip-path="url(#clip0_1317_19)">
<path d="M25.192 29.1607C24.6767 31.319 23.6847 33.3126 22.2841 35.0283C21.9303 35.4629 21.549 35.8797 21.1435 36.2755C20.9771 36.4387 20.8059 36.5986 20.6314 36.7554L20.6249 36.7618C20.1661 37.1641 19.6718 37.5308 19.1467 37.8572C18.6281 38.1835 18.0805 38.4678 17.5118 38.7086C16.9916 38.9315 16.4536 39.1173 15.9028 39.2643C14.9738 39.5131 14.2856 39.6197 13.3632 39.6601C13.1871 39.6682 13.0045 39.6714 12.8187 39.6714C12.1095 39.6714 11.3615 39.6165 10.7993 39.5196C7.16439 38.8911 4.04805 36.6778 2.02703 33.2868C-0.0117605 29.8715 -0.533574 25.8552 0.556903 21.9795C1.67323 18.0134 4.05613 14.6595 6.35986 11.4139L6.44871 11.2895C8.29526 8.68842 10.389 5.74005 11.6814 2.62688L12.7703 0L13.8591 2.62688C14.9221 5.18914 16.5102 7.59793 18.1419 9.92916C18.0401 10.0713 17.9399 10.2135 17.8398 10.3541L17.7509 10.4784C17.3987 10.9744 17.0465 11.472 16.6944 11.9744C15.3082 10.0083 13.914 7.98566 12.7703 5.8289C11.4649 8.29746 9.84293 10.5818 8.37119 12.6546L8.28233 12.779C6.09492 15.8598 3.83157 19.0457 2.82671 22.6177C1.91394 25.8633 2.34852 29.2237 4.05128 32.08C5.71527 34.87 8.25487 36.6875 11.2016 37.1964C11.7412 37.2901 12.5877 37.3337 13.2598 37.3046C14.0142 37.2707 14.5279 37.1916 15.2953 36.9864C15.3567 36.9702 15.4181 36.9524 15.4795 36.9347C16.0498 36.7715 16.6023 36.555 17.1241 36.2933C17.8301 35.9395 18.4844 35.5017 19.0643 34.9928C19.0886 34.9718 19.1128 34.9492 19.1354 34.9282C19.5393 34.5614 19.9173 34.1721 20.2647 33.765C21.5442 32.2722 22.444 30.5177 22.898 28.613C23.0934 27.7939 23.192 26.9393 23.192 26.062C23.192 24.7131 22.9594 23.3124 22.5005 21.9198C21.9206 20.1572 21.0401 18.5045 20.0756 16.9503C20.5409 16.2346 21.0288 15.527 21.5215 14.8259C22.7768 16.7581 23.9739 18.8551 24.7413 21.1815C25.6347 23.8956 25.7914 26.6549 25.192 29.1607Z" fill="#00CAFF"/>
<path d="M37.9058 29.1607C37.2062 32.0896 35.6295 34.7165 33.3468 36.7554L33.3387 36.7618C32.0123 37.9282 30.379 38.7942 28.6181 39.2643C27.6892 39.5131 27.001 39.6197 26.0785 39.6601C25.9008 39.6682 25.7183 39.6714 25.5325 39.6714C24.8249 39.6714 24.0753 39.6165 23.5147 39.5196C22.5648 39.3564 21.6504 39.0834 20.7812 38.7086C21.0979 38.4775 21.4048 38.2336 21.6972 37.9751L21.715 37.9606C22.0849 37.6294 22.4387 37.2853 22.7748 36.9266C23.148 37.0397 23.5292 37.1285 23.917 37.1964C24.4565 37.2901 25.3015 37.3337 25.9735 37.3046C26.7296 37.2707 27.2433 37.1916 28.0091 36.9864C29.4194 36.61 30.7231 35.9201 31.7797 34.9928C33.7006 33.2755 35.0253 31.0702 35.6117 28.613C35.8088 27.7923 35.9057 26.936 35.9057 26.0588C35.9057 24.7098 35.6747 23.3124 35.2159 21.9198C34.3968 19.4367 32.9865 17.1717 31.5842 15.0941C31.0042 14.233 30.3855 13.3574 29.7878 12.5108C28.2789 10.3751 26.7328 8.18276 25.4856 5.8289C24.3192 8.03412 22.9008 10.0907 21.5615 11.9825C21.4016 12.2087 21.2416 12.4333 21.0849 12.6546L20.9961 12.779C20.8523 12.9809 20.7085 13.1845 20.5647 13.3864C20.0785 14.073 19.5938 14.7645 19.1253 15.4656C18.7957 15.9552 18.4759 16.4495 18.1673 16.9487C17.0558 18.7501 16.1027 20.6241 15.5405 22.6177C14.6277 25.8633 15.0623 29.2237 16.7666 32.08C17.135 32.6971 17.5469 33.269 17.9961 33.7876C17.4064 34.3046 16.7198 34.7311 15.975 35.0493C15.5275 34.5049 15.1156 33.9152 14.7408 33.2868C12.7036 29.8715 12.1818 25.8552 13.2707 21.9795C14.0041 19.3769 15.282 17.036 16.7263 14.8178C17.0413 14.3331 17.3644 13.8549 17.6907 13.38C18.1479 12.7176 18.6132 12.0633 19.0736 11.4139L19.1334 11.3315L19.1625 11.2895C19.4775 10.8468 19.799 10.3928 20.1221 9.93078C21.7005 7.6787 23.3241 5.21014 24.3951 2.62688L25.484 0L26.5729 2.62688C27.8233 5.63827 29.8007 8.43963 31.7135 11.1505C32.3193 12.0084 32.9445 12.8937 33.539 13.7742C35.0366 15.9923 36.5471 18.4253 37.455 21.1815C38.35 23.8956 38.5051 26.6549 37.9058 29.1607Z" fill="#353EE8"/>
</g>
<defs>
<clipPath id="clip0_1317_19">
<rect width="38.2572" height="39.6713" fill="white"/>
</clipPath>
</defs>
</svg>
